{
  "source": "C:\\Users\\Peter\\Desktop\\stuff\\MIUN\\quantitative_research\\video_compression\\videos\\BVI-HD\\BVI-HD_CDVL_videos\\ORIG\\SmokeGuns_1920x1080_60fps.mp4",
  "output": "C:\\Users\\Peter\\Desktop\\stuff\\MIUN\\quantitative_research\\video_compression\\compressed_videos\\BVI-HD\\av1\\2\\SmokeGuns_1920x1080_60fps_av1.mkv",
  "codec": "av1",
  "ok": "Input #0, mov,mp4,m4a,3gp,3g2,mj2, from 'C:\\Users\\Peter\\Desktop\\stuff\\MIUN\\quantitative_research\\video_compression\\videos\\BVI-HD\\BVI-HD_CDVL_videos\\ORIG\\SmokeGuns_1920x1080_60fps.mp4':\n  Metadata:\n    major_brand     : isom\n    minor_version   : 512\n    compatible_brands: isomiso2avc1mp41\n    encoder         : Lavf54.28.101\n  Duration: 00:00:05.00, start: 0.000000, bitrate: 384353 kb/s\n  Stream #0:0[0x1](und): Video: h264 (High 4:4:4 Predictive) (avc1 / 0x31637661), yuv420p(progressive), 1920x1080, 384348 kb/s, 60 fps, 60 tbr, 60 tbn (default)\n    Metadata:\n      handler_name    : VideoHandler\n      vendor_id       : [0][0][0][0]\n[out#0/matroska @ 0000021e472896c0] Codec AVOption b:a (set bitrate (in bits/s)) has not been used for any stream. The most likely reason is either wrong type (e.g. a video option with no video streams) or that it is a private option of some decoder which was not actually used for any stream.\nStream mapping:\n  Stream #0:0 -> #0:0 (h264 (native) -> av1 (libsvtav1))\nPress [q] to stop, [?] for help\nSvt[info]: -------------------------------------------\nSvt[info]: SVT [version]:\tSVT-AV1 Encoder Lib v3.1.0-19-g6ecfe8ec\nSvt[info]: SVT [build]  :\tGCC 15.2.0\t 64 bit\nSvt[info]: LIB Build date: Aug 17 2025 11:37:13\nSvt[info]: -------------------------------------------\nSvt[info]: Level of Parallelism: 5\nSvt[info]: Number of PPCS 93\nSvt[info]: [asm level on system : up to avx2]\nSvt[info]: [asm level selected : up to avx2]\nSvt[info]: -------------------------------------------\nSvt[info]: SVT [config]: main profile\ttier (auto)\tlevel (auto)\nSvt[info]: SVT [config]: width / height / fps numerator / fps denominator \t\t: 1920 / 1080 / 60 / 1\nSvt[info]: SVT [config]: bit-depth / color format \t\t\t\t\t: 8 / YUV420\nSvt[info]: SVT [config]: preset / tune / pred struct \t\t\t\t\t: 4 / PSNR / random access\nSvt[info]: SVT [config]: gop size / mini-gop size / key-frame type \t\t\t: 321 / 16 / key frame\nSvt[info]: SVT [config]: BRC mode / target bitrate (kbps)\t\t\t\t: VBR / 2000 \nSvt[info]: SVT [config]: AQ mode / Variance Boost \t\t\t\t\t: 2 / 0\nSvt[info]: SVT [config]: sharpness / luminance-based QP bias \t\t\t\t: 0 / 0\nSvt[info]: SVT [config]: QP scale compress strength \t\t\t\t\t: 0\nSvt[info]: -------------------------------------------\nOutput #0, matroska, to 'C:\\Users\\Peter\\Desktop\\stuff\\MIUN\\quantitative_research\\video_compression\\compressed_videos\\BVI-HD\\av1\\2\\SmokeGuns_1920x1080_60fps_av1.mkv':\n  Metadata:\n    major_brand     : isom\n    minor_version   : 512\n    compatible_brands: isomiso2avc1mp41\n    encoder         : Lavf62.3.100\n  Stream #0:0(und): Video: av1 (AV01 / 0x31305641), yuv420p(tv, progressive), 1920x1080, q=2-31, 2000 kb/s, 60 fps, 1k tbn (default)\n    Metadata:\n      encoder         : Lavc62.11.100 libsvtav1\n      handler_name    : VideoHandler\n      vendor_id       : [0][0][0][0]\n    Side data:\n      cpb: bitrate max/min/avg: 0/0/2000000 buffer size: 2000000 vbv_delay: N/A\nframe=    0 fps=0.0 q=0.0 size=       0KiB time=N/A bitrate=N/A speed=N/A elapsed=0:00:01.04    \nframe=    0 fps=0.0 q=0.0 size=       0KiB time=N/A bitrate=N/A speed=N/A elapsed=0:00:01.58    \nframe=    0 fps=0.0 q=0.0 size=       0KiB time=N/A bitrate=N/A speed=N/A elapsed=0:00:02.09    \nframe=    0 fps=0.0 q=0.0 size=       0KiB time=N/A bitrate=N/A speed=N/A elapsed=0:00:02.62    \nframe=    1 fps=0.3 q=18.0 size=       1KiB time=00:00:00.00 bitrate=N/A speed=   0x elapsed=0:00:03.15    \nframe=    1 fps=0.3 q=18.0 size=       1KiB time=00:00:00.00 bitrate=N/A speed=   0x elapsed=0:00:03.67    \nframe=    6 fps=1.4 q=44.0 size=       1KiB time=00:00:00.08 bitrate=  68.4kbits/s speed=0.0198x elapsed=0:00:04.20    \nframe=   11 fps=2.3 q=43.0 size=       1KiB time=00:00:00.16 bitrate=  34.2kbits/s speed=0.0352x elapsed=0:00:04.72    \nframe=   18 fps=3.4 q=40.0 size=       1KiB time=00:00:00.28 bitrate=  20.1kbits/s speed=0.054x elapsed=0:00:05.24    \nframe=   24 fps=4.1 q=39.0 size=       1KiB time=00:00:00.38 bitrate=  14.9kbits/s speed=0.066x elapsed=0:00:05.80    \nframe=   31 fps=4.9 q=40.0 size=       1KiB time=00:00:00.50 bitrate=  11.4kbits/s speed=0.0786x elapsed=0:00:06.35    \nframe=   37 fps=5.4 q=42.0 size=       1KiB time=00:00:00.60 bitrate=   9.5kbits/s speed=0.0869x elapsed=0:00:06.90    \nframe=   41 fps=5.5 q=38.0 size=       1KiB time=00:00:00.66 bitrate=   8.5kbits/s speed=0.0897x elapsed=0:00:07.43    \nframe=   48 fps=6.0 q=38.0 size=       1KiB time=00:00:00.78 bitrate=   7.3kbits/s speed=0.0986x elapsed=0:00:07.94    \nframe=   53 fps=6.3 q=42.0 size=       1KiB time=00:00:00.86 bitrate=   6.6kbits/s speed=0.102x elapsed=0:00:08.46    \nframe=   57 fps=6.3 q=38.0 size=       1KiB time=00:00:00.93 bitrate=   6.1kbits/s speed=0.104x elapsed=0:00:08.98    \nframe=   62 fps=6.5 q=37.0 size=       1KiB time=00:00:01.01 bitrate=   5.6kbits/s speed=0.107x elapsed=0:00:09.51    \nframe=   68 fps=6.8 q=32.0 size=       1KiB time=00:00:01.11 bitrate=   5.1kbits/s speed=0.111x elapsed=0:00:10.04    \nframe=   73 fps=6.9 q=39.0 size=       1KiB time=00:00:01.20 bitrate=   4.7kbits/s speed=0.113x elapsed=0:00:10.57    \nframe=   80 fps=7.2 q=39.0 size=       1KiB time=00:00:01.31 bitrate=   4.3kbits/s speed=0.119x elapsed=0:00:11.07    \nframe=   86 fps=7.4 q=35.0 size=       1KiB time=00:00:01.41 bitrate=   4.0kbits/s speed=0.122x elapsed=0:00:11.61    \nframe=   91 fps=7.5 q=41.0 size=       1KiB time=00:00:01.50 bitrate=   3.8kbits/s speed=0.124x elapsed=0:00:12.13    \nframe=   97 fps=7.7 q=19.0 size=       1KiB time=00:00:01.60 bitrate=   3.6kbits/s speed=0.126x elapsed=0:00:12.65    \nframe=  103 fps=7.8 q=41.0 size=       1KiB time=00:00:01.70 bitrate=   3.4kbits/s speed=0.129x elapsed=0:00:13.19    \nframe=  109 fps=7.9 q=42.0 size=       1KiB time=00:00:01.78 bitrate=   3.2kbits/s speed=0.13x elapsed=0:00:13.71    \nframe=  115 fps=8.1 q=41.0 size=       1KiB time=00:00:01.90 bitrate=   3.0kbits/s speed=0.133x elapsed=0:00:14.26    \nframe=  120 fps=8.1 q=39.0 size=       1KiB time=00:00:01.98 bitrate=   2.9kbits/s speed=0.134x elapsed=0:00:14.78    \nframe=  129 fps=8.4 q=19.0 size=       1KiB time=00:00:02.11 bitrate=   2.7kbits/s speed=0.138x elapsed=0:00:15.29    \nframe=  134 fps=8.5 q=39.0 size=       1KiB time=00:00:02.21 bitrate=   2.6kbits/s speed=0.14x elapsed=0:00:15.82    \nframe=  142 fps=8.7 q=39.0 size=       1KiB time=00:00:02.35 bitrate=   2.4kbits/s speed=0.144x elapsed=0:00:16.36    \nframe=  148 fps=8.8 q=39.0 size=       1KiB time=00:00:02.45 bitrate=   2.3kbits/s speed=0.145x elapsed=0:00:16.89    \nframe=  154 fps=8.8 q=39.0 size=       1KiB time=00:00:02.55 bitrate=   2.2kbits/s speed=0.146x elapsed=0:00:17.41    \nframe=  162 fps=9.0 q=38.0 size=       1KiB time=00:00:02.68 bitrate=   2.1kbits/s speed=0.15x elapsed=0:00:17.94    \nframe=  168 fps=9.1 q=39.0 size=       1KiB time=00:00:02.78 bitrate=   2.0kbits/s speed=0.151x elapsed=0:00:18.49    \nframe=  176 fps=9.3 q=38.0 size=       1KiB time=00:00:02.90 bitrate=   2.0kbits/s speed=0.152x elapsed=0:00:19.02    \nframe=  182 fps=9.3 q=38.0 size=       1KiB time=00:00:03.01 bitrate=   1.9kbits/s speed=0.154x elapsed=0:00:19.57    \nframe=  189 fps=9.4 q=41.0 size=       1KiB time=00:00:03.13 bitrate=   1.8kbits/s speed=0.156x elapsed=0:00:20.11    \nframe=  197 fps=9.5 q=41.0 size=       1KiB time=00:00:03.26 bitrate=   1.7kbits/s speed=0.158x elapsed=0:00:20.65    \nframe=  205 fps=9.7 q=41.0 size=       1KiB time=00:00:03.40 bitrate=   1.7kbits/s speed=0.16x elapsed=0:00:21.19    \nframe=  213 fps=9.8 q=40.0 size=       1KiB time=00:00:03.53 bitrate=   1.6kbits/s speed=0.163x elapsed=0:00:21.70    \nframe=  221 fps=9.9 q=40.0 size=       1KiB time=00:00:03.66 bitrate=   1.6kbits/s speed=0.165x elapsed=0:00:22.22    \nframe=  229 fps= 10 q=40.0 size=       1KiB time=00:00:03.80 bitrate=   1.5kbits/s speed=0.167x elapsed=0:00:22.75    \nframe=  239 fps= 10 q=38.0 size=       1KiB time=00:00:03.96 bitrate=   1.4kbits/s speed=0.17x elapsed=0:00:23.30    \nframe=  249 fps= 10 q=35.0 size=       1KiB time=00:00:04.13 bitrate=   1.4kbits/s speed=0.173x elapsed=0:00:23.84    \nframe=  257 fps= 11 q=20.0 size=       1KiB time=00:00:04.26 bitrate=   1.3kbits/s speed=0.175x elapsed=0:00:24.39    \nframe=  263 fps= 11 q=38.0 size=       1KiB time=00:00:04.36 bitrate=   1.3kbits/s speed=0.175x elapsed=0:00:24.94    \nframe=  269 fps= 11 q=38.0 size=       1KiB time=00:00:04.46 bitrate=   1.3kbits/s speed=0.175x elapsed=0:00:25.47    \nframe=  275 fps= 11 q=37.0 size=       1KiB time=00:00:04.56 bitrate=   1.2kbits/s speed=0.176x elapsed=0:00:26.01    \nframe=  281 fps= 11 q=33.0 size=       1KiB time=00:00:04.66 bitrate=   1.2kbits/s speed=0.176x elapsed=0:00:26.53    \nframe=  295 fps= 11 q=40.0 size=       1KiB time=00:00:04.90 bitrate=   1.2kbits/s speed=0.181x elapsed=0:00:27.07    \n[out#0/matroska @ 0000021e472896c0] video:1188KiB audio:0KiB subtitle:0KiB other streams:0KiB global headers:0KiB muxing overhead: 0.174902%\nframe=  300 fps= 11 q=45.0 Lsize=    1190KiB time=00:00:04.98 bitrate=1955.7kbits/s speed=0.184x elapsed=0:00:27.10    \n",
  "seconds": 27.511615991592407,
  "probe_out": {}
}